<svg xmlns="http://www.w3.org/2000/svg" width="440" height="460"><path d="M0 0 C145.2 0 290.4 0 440 0 C440 151.8 440 303.6 440 460 C294.8 460 149.6 460 0 460 C0 308.2 0 156.4 0 0 Z " fill="#FFFF0000" transform="translate(0,0)"></path><path d="M0 0 C6.18447938 4.65289985 9.51221788 11.3527892 12.3671875 18.375 C12.73102539 19.24535889 13.09486328 20.11571777 13.46972656 21.01245117 C18.20296289 32.4270662 22.76307112 43.91777876 27.31005859 55.40771484 C30.58513542 63.67473054 33.90394865 71.91170049 37.4140625 80.08203125 C38.32010062 82.21558325 39.2245127 84.34981775 40.12854004 86.48422241 C40.69360797 87.80310693 41.26742463 89.11828588 41.85095215 90.42910767 C46.65347718 101.22174822 48.38394248 111.0932637 45.0546875 122.625 C40.80443084 132.73613689 33.41341805 138.79799432 23.4921875 142.875 C21.82513376 143.64499586 20.15844698 144.41578687 18.4921875 145.1875 C14.75700963 146.875 14.75700963 146.875 12.4921875 146.875 C9.89109743 156.20675951 11.88153254 163.24816363 16.1796875 171.6875 C16.67009521 172.6787085 17.16050293 173.66991699 17.66577148 174.69116211 C31.0937903 201.2748818 48.98438567 225.35104583 69.4921875 246.875 C70.28882813 247.72449219 71.08546875 248.57398438 71.90625 249.44921875 C76.58818118 254.30653171 81.52994927 258.68261244 86.8046875 262.875 C87.39161377 263.34429932 87.97854004 263.81359863 88.58325195 264.29711914 C93.38960606 268.03005645 97.31032546 270.15332761 103.4296875 270.25 C104.24308594 270.27835937 105.05648437 270.30671875 105.89453125 270.3359375 C112.54012239 269.15671982 116.51358473 263.88589552 120.5546875 258.9375 C128.37430057 249.49589293 135.96162171 240.8581574 148.56640625 238.484375 C160.45854191 237.80895959 170.19101469 246.5821981 179.19384766 253.18994141 C182.24720498 255.42855117 185.32022222 257.63938355 188.39257812 259.85180664 C190.671691 261.49423737 192.94750177 263.1411541 195.22265625 264.7890625 C198.96834389 267.49970263 202.72674589 270.19189679 206.4921875 272.875 C208.82614605 274.54079228 211.15926036 276.20776363 213.4921875 277.875 C214.21470703 278.39094727 214.93722656 278.90689453 215.68164062 279.43847656 C220.97322018 283.22166715 226.2431174 287.03305626 231.4921875 290.875 C232.54535156 291.64199219 233.59851563 292.40898437 234.68359375 293.19921875 C242.88712559 299.42216615 247.56459745 306.14997214 248.9921875 316.5 C248.43021403 331.39229685 231.61801193 349.1521063 221.4921875 358.875 C201.75136969 375.69466876 179.72808618 379.74593732 154.4921875 377.875 C119.55354357 374.08055613 83.09359142 348.23229456 56.4921875 326.875 C55.5021875 326.08609375 54.5121875 325.2971875 53.4921875 324.484375 C50.80078887 322.30934937 48.14331058 320.09889174 45.4921875 317.875 C44.98187988 317.45492676 44.47157227 317.03485352 43.94580078 316.60205078 C36.46910067 310.44542418 29.40811675 303.9709555 22.5546875 297.125 C21.85714355 296.42826172 21.15959961 295.73152344 20.44091797 295.01367188 C15.93275266 290.45691556 11.66304797 285.74089732 7.4921875 280.875 C7.04077393 280.35599121 6.58936035 279.83698242 6.12426758 279.30224609 C-42.36672581 223.5390076 -85.97416219 145.969245 -81.5078125 69.875 C-80.82435385 64.3166249 -79.35761254 59.16275076 -77.5078125 53.875 C-77.1571875 52.82699219 -76.8065625 51.77898437 -76.4453125 50.69921875 C-67.41014373 26.51131903 -46.55589459 10.93752339 -24.12109375 -0.00390625 C-14.96704788 -3.93097825 -8.93373816 -4.21789605 0 0 Z " fill="#F58D1B" transform="translate(129.5078125,42.125)"></path><path d="M0 0 C11.09405394 4.38424812 18.57715375 13.26346101 23.5859375 23.8359375 C27.60530461 33.2833888 28.09669029 41.02171618 27.8359375 51.3359375 C28.82335937 51.46871094 29.81078125 51.60148437 30.828125 51.73828125 C32.10945312 51.91488281 33.39078125 52.09148438 34.7109375 52.2734375 C35.98710937 52.44746094 37.26328125 52.62148438 38.578125 52.80078125 C41.8359375 53.3359375 41.8359375 53.3359375 43.8359375 54.3359375 C44.23232422 53.03462891 44.23232422 53.03462891 44.63671875 51.70703125 C49.6856966 37.51397624 58.69076139 28.75571235 71.97265625 22.296875 C77.8989829 19.80525633 83.51546765 19.24097844 89.6484375 21.5859375 C94.4526522 24.22354557 94.4526522 24.22354557 95.8359375 27.3359375 C95.8359375 31.62674157 95.4793553 33.62102883 92.5859375 36.8359375 C89.8359375 38.3359375 89.8359375 38.3359375 87.1484375 38.1484375 C84.8359375 37.3359375 84.8359375 37.3359375 82.8359375 36.3359375 C76.22490121 35.88867923 71.87308887 38.01617313 66.9140625 42.23828125 C61.91145868 47.28790202 58.92296738 52.57007785 56.8359375 59.3359375 C57.59777344 59.80902344 58.35960937 60.28210938 59.14453125 60.76953125 C75.75312262 71.40649426 85.02345501 84.24914255 89.8359375 103.3359375 C90.09745605 104.28073975 90.09745605 104.28073975 90.36425781 105.24462891 C94.03260428 121.50915057 89.6087026 139.65104969 81.9453125 154.01171875 C73.16290653 167.85214001 60.34283921 177.16697026 44.8359375 182.3359375 C43.79282523 185.10857788 42.91291803 187.81177476 42.0859375 190.6484375 C38.2521646 202.88562827 32.25580718 212.66492253 23.8359375 222.3359375 C23.31773437 222.94953125 22.79953125 223.563125 22.265625 224.1953125 C10.96401381 236.57597199 -7.07905443 244.83791817 -23.7421875 245.671875 C-42.31076104 246.02930286 -57.0727953 240.08274899 -72.1640625 229.3359375 C-72.5765625 229.78324219 -72.9890625 230.23054687 -73.4140625 230.69140625 C-78.59615961 236.11641417 -83.8602258 241.02470005 -91.4765625 242.3359375 C-95.1640625 242.3359375 -95.1640625 242.3359375 -97.1640625 241.3359375 C-98.75755991 238.14894268 -98.53269875 235.87198234 -98.1640625 232.3359375 C-96.66373885 229.49775936 -94.74084371 227.07695688 -92.7265625 224.5859375 C-91.70388868 223.28110274 -90.68422394 221.97390252 -89.66796875 220.6640625 C-89.21236572 220.0959082 -88.7567627 219.52775391 -88.28735352 218.94238281 C-86.96535411 217.21394769 -86.96535411 217.21394769 -86.1640625 214.3359375 C-86.55784027 212.36048437 -86.55784027 212.36048437 -87.34375 210.28125 C-87.74787109 209.11142578 -87.74787109 209.11142578 -88.16015625 207.91796875 C-88.45019531 207.10714844 -88.74023438 206.29632813 -89.0390625 205.4609375 C-94.84728101 188.93801452 -94.86065163 173.59544542 -87.41015625 157.38671875 C-85.23470715 152.88047198 -82.94208849 148.50297648 -80.1640625 144.3359375 C-81.4634375 144.4184375 -82.7628125 144.5009375 -84.1015625 144.5859375 C-92.58182419 144.55935361 -100.12417319 140.09608457 -106.1640625 134.3359375 C-112.22300454 126.85294257 -114.73059837 120.0861192 -114.5390625 110.4375 C-113.7479372 103.89423452 -110.78575346 98.50213904 -105.9765625 94.0234375 C-101.77772727 90.77720145 -95.6059521 86.3359375 -90.1640625 86.3359375 C-90.67195313 85.75328125 -91.17984375 85.170625 -91.703125 84.5703125 C-101.3380415 73.09501869 -106.79464637 61.6726811 -106.46484375 46.640625 C-105.5273448 36.34031185 -100.8117203 29.12857765 -93.1640625 22.3359375 C-83.54681114 15.49823856 -74.74512778 14.13862218 -63.1640625 15.3359375 C-54.94085312 17.39867731 -48.40906663 21.72794654 -42.1640625 27.3359375 C-41.42542969 27.98175781 -40.68679687 28.62757812 -39.92578125 29.29296875 C-29.12855473 39.34427289 -23.04869157 51.65897611 -18.1640625 65.3359375 C-17.1121875 64.64757812 -17.1121875 64.64757812 -16.0390625 63.9453125 C-5.96895365 57.43257906 2.5024558 52.15995441 14.8359375 52.3359375 C13.63574973 39.22343825 11.19592729 25.50164304 0.6484375 16.4609375 C-2.8710261 15.05315206 -6.09042229 14.8796569 -9.859375 14.7421875 C-12.63035262 14.25374399 -13.51509114 13.58691427 -15.1640625 11.3359375 C-15.7265625 7.9609375 -15.7265625 7.9609375 -15.1640625 4.3359375 C-10.63428272 -0.85673688 -6.83299359 -2.09676699 0 0 Z " fill="#2E2102" transform="translate(295.1640625,6.6640625)"></path><path d="M0 0 C6.18447938 4.65289985 9.51221788 11.3527892 12.3671875 18.375 C12.73102539 19.24535889 13.09486328 20.11571777 13.46972656 21.01245117 C18.20296289 32.4270662 22.76307112 43.91777876 27.31005859 55.40771484 C30.58513542 63.67473054 33.90394865 71.91170049 37.4140625 80.08203125 C38.32010062 82.21558325 39.2245127 84.34981775 40.12854004 86.48422241 C40.69360797 87.80310693 41.26742463 89.11828588 41.85095215 90.42910767 C46.65347718 101.22174822 48.38394248 111.0932637 45.0546875 122.625 C40.80443084 132.73613689 33.41341805 138.79799432 23.4921875 142.875 C21.82513376 143.64499586 20.15844698 144.41578687 18.4921875 145.1875 C14.75700963 146.875 14.75700963 146.875 12.4921875 146.875 C9.89109743 156.20675951 11.88153254 163.24816363 16.1796875 171.6875 C16.67009521 172.6787085 17.16050293 173.66991699 17.66577148 174.69116211 C31.0937903 201.2748818 48.98438567 225.35104583 69.4921875 246.875 C70.28882813 247.72449219 71.08546875 248.57398438 71.90625 249.44921875 C76.58818118 254.30653171 81.52994927 258.68261244 86.8046875 262.875 C87.39161377 263.34429932 87.97854004 263.81359863 88.58325195 264.29711914 C93.38960606 268.03005645 97.31032546 270.15332761 103.4296875 270.25 C104.24308594 270.27835937 105.05648437 270.30671875 105.89453125 270.3359375 C112.54012239 269.15671982 116.51358473 263.88589552 120.5546875 258.9375 C128.37430057 249.49589293 135.96162171 240.8581574 148.56640625 238.484375 C160.45854191 237.80895959 170.19101469 246.5821981 179.19384766 253.18994141 C182.24720498 255.42855117 185.32022222 257.63938355 188.39257812 259.85180664 C190.671691 261.49423737 192.94750177 263.1411541 195.22265625 264.7890625 C198.96834389 267.49970263 202.72674589 270.19189679 206.4921875 272.875 C208.82614605 274.54079228 211.15926036 276.20776363 213.4921875 277.875 C214.21470703 278.39094727 214.93722656 278.90689453 215.68164062 279.43847656 C220.97322018 283.22166715 226.2431174 287.03305626 231.4921875 290.875 C232.54535156 291.64199219 233.59851563 292.40898437 234.68359375 293.19921875 C242.88712559 299.42216615 247.56459745 306.14997214 248.9921875 316.5 C248.43021403 331.39229685 231.61801193 349.1521063 221.4921875 358.875 C201.75136969 375.69466876 179.72808618 379.74593732 154.4921875 377.875 C119.55354357 374.08055613 83.09359142 348.23229456 56.4921875 326.875 C55.5021875 326.08609375 54.5121875 325.2971875 53.4921875 324.484375 C50.80078887 322.30934937 48.14331058 320.09889174 45.4921875 317.875 C44.98187988 317.45492676 44.47157227 317.03485352 43.94580078 316.60205078 C36.46910067 310.44542418 29.40811675 303.9709555 22.5546875 297.125 C21.85714355 296.42826172 21.15959961 295.73152344 20.44091797 295.01367188 C15.93275266 290.45691556 11.66304797 285.74089732 7.4921875 280.875 C7.04077393 280.35599121 6.58936035 279.83698242 6.12426758 279.30224609 C-42.36672581 223.5390076 -85.97416219 145.969245 -81.5078125 69.875 C-80.82435385 64.3166249 -79.35761254 59.16275076 -77.5078125 53.875 C-77.1571875 52.82699219 -76.8065625 51.77898437 -76.4453125 50.69921875 C-67.41014373 26.51131903 -46.55589459 10.93752339 -24.12109375 -0.00390625 C-14.96704788 -3.93097825 -8.93373816 -4.21789605 0 0 Z M-21.1328125 13.4375 C-22.19459717 13.98386108 -22.19459717 13.98386108 -23.27783203 14.54125977 C-33.46536592 19.85694712 -42.27343727 25.8104057 -50.5078125 33.875 C-51.13429688 34.46539062 -51.76078125 35.05578125 -52.40625 35.6640625 C-64.66937203 48.26011997 -69.00171022 65.99786881 -68.79174805 83.07299805 C-67.85481398 116.32889374 -56.64433518 147.72444001 -43.5078125 177.875 C-42.91395752 179.24301758 -42.91395752 179.24301758 -42.30810547 180.63867188 C-30.66427118 207.14240625 -14.66807857 232.35997625 3.4921875 254.875 C4.25015625 255.82503906 5.008125 256.77507812 5.7890625 257.75390625 C10.16380947 263.17708395 14.70216555 268.4159006 19.3984375 273.5625 C21.18123136 275.53155591 22.90337197 277.53390202 24.6171875 279.5625 C33.67837333 289.9301824 43.64694747 299.40679888 54.4921875 307.875 C55.63220786 308.80223452 56.7701051 309.73208341 57.90625 310.6640625 C83.99155265 331.98693219 112.7099508 350.39210798 144.4921875 361.875 C145.54664063 362.25914062 146.60109375 362.64328125 147.6875 363.0390625 C164.67523847 368.21766084 184.51670038 365.563451 200.2421875 357.8125 C210.91333689 351.62402675 219.27829518 342.80155431 226.4921875 332.875 C227.23984375 331.89273437 227.9875 330.91046875 228.7578125 329.8984375 C232.52355944 324.69749331 235.40306702 320.56123217 235.26171875 314.0078125 C233.17787638 308.23228999 228.25272316 304.71835453 223.3671875 301.375 C222.12385689 300.51206135 220.88173677 299.64737683 219.640625 298.78125 C218.97514648 298.31847656 218.30966797 297.85570312 217.62402344 297.37890625 C213.69879221 294.60984712 209.85074527 291.7358345 205.9921875 288.875 C199.95690294 284.41289105 193.90052599 279.98676223 187.78051758 275.64160156 C184.49005939 273.30473988 181.21211546 270.95189143 177.9453125 268.58203125 C177.15519775 268.00912354 176.36508301 267.43621582 175.55102539 266.84594727 C174.02316799 265.73713775 172.49623908 264.62704714 170.97045898 263.51538086 C168.81993072 261.95568117 166.65897665 260.41201838 164.4921875 258.875 C163.71125732 258.31458008 162.93032715 257.75416016 162.12573242 257.17675781 C161.34689697 256.63374023 160.56806152 256.09072266 159.765625 255.53125 C159.06743652 255.03947266 158.36924805 254.54769531 157.64990234 254.04101562 C153.64250655 251.87544397 149.86737929 251.81430691 145.4921875 252.875 C139.34018774 256.2669012 135.06069339 261.43352351 130.8671875 266.9375 C124.5195131 275.19407649 118.69985293 281.90948719 107.73046875 283.37890625 C87.66978951 283.67831937 75.31427558 270.91108862 61.4921875 257.875 C60.39197266 256.83859375 60.39197266 256.83859375 59.26953125 255.78125 C54.8023824 251.44731632 50.83508604 246.80430158 46.94921875 241.9453125 C45.25914724 239.83339484 43.55578849 237.74952125 41.81640625 235.6796875 C23.46399234 213.621437 -4.19639493 179.21320855 -1.5078125 148.875 C0.44254785 142.34297417 3.75135659 137.64135994 9.4921875 133.875 C12.09790774 132.70798791 14.7716785 131.85791853 17.4921875 131 C23.72154239 128.85314022 28.17671323 126.87715169 31.4921875 120.875 C31.9459375 120.111875 32.3996875 119.34875 32.8671875 118.5625 C35.50771041 107.20825148 30.85048852 98.29972398 26.4296875 88.0625 C25.7032776 86.34392748 24.97886175 84.62451088 24.25634766 82.90429688 C22.75945608 79.34280832 21.25522718 75.78455145 19.74658203 72.22802734 C16.52084154 64.59792706 13.41877107 56.91802383 10.31985474 49.23574829 C9.39621453 46.94693016 8.46996396 44.65918828 7.54272461 42.37182617 C7.10617805 41.29368904 7.10617805 41.29368904 6.66081238 40.19377136 C6.09154187 38.78942196 5.52094574 37.38560908 4.94892883 35.9823761 C3.55673667 32.55708796 2.20119491 29.12385553 0.90722656 25.66015625 C0.51991867 24.64175659 0.51991867 24.64175659 0.12478638 23.6027832 C-0.57594088 21.75440794 -1.26286347 19.90081574 -1.94873047 18.046875 C-3.67242067 14.54011285 -5.55059398 12.40737455 -8.5078125 9.875 C-13.19522157 8.80112869 -17.06451436 11.31056009 -21.1328125 13.4375 Z " fill="#2E2002" transform="translate(129.5078125,42.125)"></path><path d="M0 0 C0.88623047 -0.01611328 1.77246094 -0.03222656 2.68554688 -0.04882812 C17.43325043 -0.05958502 30.93561078 6.73904982 41.46875 16.87890625 C51.58305276 27.97258692 55.41847022 40.83352564 54.94140625 55.71484375 C53.79990815 71.8889937 48.83307603 84.85180372 36.875 96.0625 C26.14707592 104.94078199 12.90582408 108.01084512 -0.83203125 107.66015625 C-16.56891488 106.08823409 -30.16511852 97.84160115 -40.31640625 85.96875 C-49.7098166 73.47125373 -52.51503542 59.57596635 -51.3125 44.3125 C-49.69371809 34.71682891 -46.04207391 27.1089065 -40.3125 19.3125 C-39.549375 18.24 -38.78625 17.1675 -38 16.0625 C-27.45543369 5.27271122 -14.88961146 -0.05344441 0 0 Z " fill="#FDC514" transform="translate(318.3125,70.6875)"></path><path d="M0 0 C14.78917346 8.80777442 24.8545096 24.68644629 30.63671875 40.5703125 C31.56689782 44.38264078 32.05940461 47.51282934 30.5625 51.2578125 C30.03011719 52.0209375 29.49773437 52.7840625 28.94921875 53.5703125 C26.1429012 57.79614266 23.83674198 62.00103347 21.63671875 66.5703125 C2.85782768 63.95210173 -15.2313949 55.27745831 -27.36328125 40.5703125 C-32.47088934 32.38228446 -34.66004893 24.80365884 -32.9375 15.1953125 C-30.89902102 7.99185304 -26.60037874 2.87224849 -20.55078125 -1.4296875 C-13.48469034 -3.64650033 -6.73821831 -3.02532251 0 0 Z " fill="#B5DDE9" transform="translate(235.36328125,36.4296875)"></path><path d="M0 0 C0.268125 0.87140625 0.53625 1.7428125 0.8125 2.640625 C7.0805189 21.6921035 18.98141806 35.08071901 36.71875 44.43359375 C47.09884105 49.45958611 57.54272041 51.41088456 69 52 C68.49133552 57.4964023 67.07661108 61.52186508 64.5 66.375 C64.17902344 67.00277344 63.85804688 67.63054687 63.52734375 68.27734375 C61.18502372 72.81497628 61.18502372 72.81497628 60 74 C42.82191249 74.18352658 25.43103903 65.2803974 13 54 C12.16855469 53.26136719 11.33710938 52.52273437 10.48046875 51.76171875 C-1.50774931 40.51010395 -12.42074094 23.79851274 -13 7 C-11.21190303 5.82786955 -9.41940875 4.66244474 -7.625 3.5 C-6.62726563 2.8503125 -5.62953125 2.200625 -4.6015625 1.53125 C-2 0 -2 0 0 0 Z " fill="#FBC614" transform="translate(256,139)"></path><path d="M0 0 C2.56410348 2.56410348 3.39073031 5.42059394 4.625 8.75 C14.22773092 33.43933791 32.22763355 53.824382 56.67675781 64.66137695 C61.38416592 66.66524015 66.13315177 68.424138 71 70 C71 70.66 71 71.32 71 72 C51.97369728 81.16340315 51.97369728 81.16340315 41.67578125 77.96875 C20.47433302 68.71004555 4.10508284 54.62149071 -5 33 C-6.16985015 29.82459831 -7.18441592 26.62519276 -8.125 23.375 C-8.46180786 22.23804688 -8.46180786 22.23804688 -8.80541992 21.078125 C-9.63903412 17.93118736 -10.1176862 15.50678619 -9.375 12.30859375 C-7.74029493 9.56396109 -5.91061196 7.14993382 -3.875 4.6875 C-3.15054688 3.80449219 -2.42609375 2.92148438 -1.6796875 2.01171875 C-1.12539062 1.34785156 -0.57109375 0.68398437 0 0 Z " fill="#FCC814" transform="translate(224,160)"></path><path d="M0 0 C8.18383517 3.43953733 16.57865743 5.88589545 25.125 8.25 C25.788953 11.4369744 25.89714208 14.07233835 25.125 17.25 C17.74781486 26.32194389 2.27561834 33.39725891 -9.0859375 34.5859375 C-17.05014703 34.68426107 -23.60361307 34.13475277 -29.6875 28.6015625 C-33.5798048 24.31628462 -35.61579161 20.6260769 -36.25 14.8125 C-35.69658897 9.55509523 -33.41078476 6.7419052 -29.6875 3.125 C-19.42741121 -3.71505919 -11.50135084 -4.96940326 0 0 Z " fill="#B6DEE9" transform="translate(228.875,105.75)"></path><path d="M0 0 C0.86625 0.12375 1.7325 0.2475 2.625 0.375 C4.1875 2.5 4.1875 2.5 5.625 5.375 C8.81048235 10.70285972 8.81048235 10.70285972 13.625 14.375 C18.86514626 14.95723847 22.13523322 14.08974271 26.625 11.375 C27.285 10.715 27.945 10.055 28.625 9.375 C31.25 9.75 31.25 9.75 33.625 10.375 C33.25873083 16.72366553 33.25873083 16.72366553 30.375 19.6875 C24.4854117 23.30156555 19.50933764 24.34279819 12.625 23.375 C6.06112893 21.15850441 1.51172246 18.08362362 -2.375 12.375 C-2.82875 11.735625 -3.2825 11.09625 -3.75 10.4375 C-4.71376043 7.25709059 -4.0396835 4.57756596 -3.375 1.375 C-2.375 0.375 -2.375 0.375 0 0 Z " fill="#271B01" transform="translate(305.375,132.625)"></path><path d="M0 0 C3.9723849 1.12041625 5.8139392 2.85092706 8.76171875 5.71484375 C11.44037882 8.28711732 14.04538999 10.78171076 16.96875 13.07421875 C19.19921875 14.90234375 19.19921875 14.90234375 20.32421875 17.33984375 C20.19921875 19.90234375 20.19921875 19.90234375 18.07421875 22.77734375 C15.19921875 24.90234375 15.19921875 24.90234375 12.859375 24.796875 C7.45361244 22.97907819 3.42313643 18.61371002 -0.80078125 14.90234375 C-1.47625 14.32355469 -2.15171875 13.74476563 -2.84765625 13.1484375 C-5.22239946 10.98289786 -6.6722604 9.44213133 -7.42578125 6.27734375 C-6.31254026 2.04702797 -4.5137071 -0.1573817 0 0 Z " fill="#362706" transform="translate(122.80078125,405.09765625)"></path><path d="M0 0 C20.28682345 2.02335772 20.28682345 2.02335772 23.41796875 4.4609375 C24.6015625 6.046875 24.6015625 6.046875 24.9765625 8.546875 C24.6015625 11.046875 24.6015625 11.046875 23.5234375 12.68359375 C18.70205978 16.10363607 9.39899305 14.35391006 3.71875 13.73046875 C0.46371616 13.13424968 -1.95091694 12.41542134 -4.5234375 10.296875 C-5.73091934 7.1919217 -5.29393308 5.21555167 -4.3984375 2.046875 C-2.3984375 0.046875 -2.3984375 0.046875 0 0 Z " fill="#392904" transform="translate(202.3984375,443.953125)"></path><path d="M0 0 C4.35246778 0.95390476 8.10459663 2.43896757 12.14453125 4.27734375 C12.85931641 4.58994141 13.57410156 4.90253906 14.31054688 5.22460938 C17.214317 6.51912706 19.56499912 7.57281162 21.83203125 9.83984375 C22.08203125 13.33984375 22.08203125 13.33984375 21.83203125 16.83984375 C21.17203125 17.49984375 20.51203125 18.15984375 19.83203125 18.83984375 C11.36258998 18.83984375 1.67662217 15.61341973 -5.05859375 10.3671875 C-7.02722585 7.65685246 -6.51643056 5.03407701 -6.16796875 1.83984375 C-3.16796875 -0.16015625 -3.16796875 -0.16015625 0 0 Z " fill="#352504" transform="translate(160.16796875,431.16015625)"></path><path d="M0 0 C2.24572279 3.36858419 2.9197599 6.42085189 3.6875 10.3125 C3.82994141 10.96412109 3.97238281 11.61574219 4.11914062 12.28710938 C4.95932743 16.46296319 5.19583036 19.8904713 4 24 C1 26 1 26 -2 25.9375 C-5 25 -5 25 -6.75 23 C-9.46152723 16.49233465 -11.16618581 9.05542417 -10 2 C-7.12315007 -1.76203453 -4.29809033 -1.30811445 0 0 Z " fill="#3A2A05" transform="translate(110,367)"></path><path d="M0 0 C1.65354531 2.75590884 1.51865568 4.72575452 1.125 7.875 C-1.76084976 11.76995408 -5.55164297 11.81932593 -10.08203125 12.51953125 C-18.78796928 13.62755973 -18.78796928 13.62755973 -22.3125 11.1875 C-24.17908821 8.42494945 -24.46149994 7.14264255 -23.875 3.875 C-22.09172096 1.39070782 -20.95599989 0.89522294 -17.94921875 0.14453125 C-16.83160156 -0.00628906 -15.71398437 -0.15710938 -14.5625 -0.3125 C-13.45261719 -0.47105469 -12.34273437 -0.62960937 -11.19921875 -0.79296875 C-2.73127938 -1.63876763 -2.73127938 -1.63876763 0 0 Z " fill="#382806" transform="translate(265.875,446.125)"></path><path d="M0 0 C2.5625 0.3125 2.5625 0.3125 4.375 1.375 C6.34298836 4.58592838 6.10176424 6.5975686 5.5625 10.3125 C3.63702242 13.86546458 1.43583293 17.43916707 -1.4375 20.3125 C-6.67800633 20.7681962 -6.67800633 20.7681962 -9.3125 19.1875 C-11.08330745 16.23615426 -11.00822835 14.73687009 -10.4375 11.3125 C-4.52959976 0.58071792 -4.52959976 0.58071792 0 0 Z " fill="#312304" transform="translate(114.4375,332.6875)"></path><path d="M0 0 C3.67098741 1.43647333 4.99110939 2.65864128 6.875 6.125 C6.875 10.04516134 6.42726285 12.29660572 4.25 15.5625 C0.87262021 17.78446039 -1.16023594 17.75101538 -5.125 17.125 C-8.125 15.0625 -8.125 15.0625 -10.125 12.125 C-10.31425475 8.59224464 -10.09358877 6.3997878 -7.9140625 3.53125 C-5.33814716 1.07799729 -3.55025991 0.1420104 0 0 Z " fill="#2E2001" transform="translate(349.125,114.875)"></path><path d="M0 0 C3.96545673 0.63730555 5.10063397 1.4248675 7.5 4.5625 C8.93735246 7.43720493 8.88172649 9.38144588 8.5 12.5625 C6.37570782 15.08509696 4.76637856 16.32105039 1.4921875 16.9453125 C-1.73679106 17.12403825 -3.91492547 17.01958948 -6.5 15 C-7.89434583 11.60128205 -7.94751559 9.20655552 -7.5 5.5625 C-5.40973646 1.63280455 -4.43218827 0.71231597 0 0 Z " fill="#2B1E00" transform="translate(303.5,104.4375)"></path><path d="M0 0 C2 2 2 2 2.3125 5.4375 C2 9 2 9 0.6875 10.875 C-3.04853043 13.36568695 -6.6407283 13.46706482 -11 13 C-13.39067527 10.38519892 -14.02179346 8.9153255 -13.9375 5.375 C-12.79486864 2.48033388 -11.65791615 1.56348009 -9 0 C-5.47955362 -1.17348213 -3.57539179 -0.83679382 0 0 Z " fill="#3A2906" transform="translate(294,436)"></path><path d="M0 0 C3.00712079 0.60142416 4.61972393 1.43346627 6.33984375 3.99609375 C7.18161658 5.55426899 7.99916209 7.12583533 8.7890625 8.7109375 C10.00312176 11.00590113 11.39312408 12.96586227 13 15 C12.34 15 11.68 15 11 15 C11 15.66 11 16.32 11 17 C13.96178773 18.67110042 16.37071192 19.32682752 19.75 19.625 C20.54921875 19.69976562 21.3484375 19.77453125 22.171875 19.8515625 C22.77515625 19.90054688 23.3784375 19.94953125 24 20 C24 20.33 24 20.66 24 21 C17.04274452 21.51324016 11.78500059 21.12294028 6 17 C1.00766616 12.44178215 -0.47852213 7.59297016 -1 1 C-0.67 0.67 -0.34 0.34 0 0 Z " fill="#372600" transform="translate(303,133)"></path><path d="M0 0 C0.33 0.66 0.66 1.32 1 2 C0.28470721 4.13133988 -0.52221109 6.23235468 -1.375 8.3125 C-4.30662024 15.49415071 -5.19315316 21.64098446 -5.5625 29.3125 C-5.60568359 30.14845703 -5.64886719 30.98441406 -5.69335938 31.84570312 C-5.79885307 33.89696935 -5.89987315 35.9484648 -6 38 C-6.33 38 -6.66 38 -7 38 C-9.20135141 29.4697633 -8.77125373 18.31376118 -6 10 C-5.34 10 -4.68 10 -4 10 C-3.79503906 9.36191406 -3.59007812 8.72382812 -3.37890625 8.06640625 C-3.10949219 7.24011719 -2.84007812 6.41382812 -2.5625 5.5625 C-2.16224609 4.32693359 -2.16224609 4.32693359 -1.75390625 3.06640625 C-1 1 -1 1 0 0 Z " fill="#150D01" transform="translate(273,95)"></path><path d="M0 0 C2.67927341 4.01891012 2.15601248 6.24161923 2 11 C1.67 10.01 1.34 9.02 1 8 C0.34 8 -0.32 8 -1 8 C-1 6.02 -1 4.04 -1 2 C-2.98 2 -4.96 2 -7 2 C-7.16489368 12.04821399 -7.16489368 12.04821399 -6 22 C-9.95917021 18.04082979 -10.12730626 11.53003116 -10.375 6.125 C-10.29186209 3.15281975 -10.22490695 2.29410909 -8.375 -0.125 C-5.17160276 -1.30519898 -3.24193891 -0.98667706 0 0 Z " fill="#160E04" transform="translate(110,367)"></path><path d="M0 0 C1.485 0.99 1.485 0.99 3 2 C3.36328125 5.16015625 3.36328125 5.16015625 3.3125 9.0625 C3.30412109 9.73482666 3.29574219 10.40715332 3.28710938 11.09985352 C3.16178351 16.31779574 2.40598837 20.99116644 1 26 C0.67 26 0.34 26 0 26 C0 17.42 0 8.84 0 0 Z " fill="#312711" transform="translate(48,112)"></path><path d="M0 0 C0.33 0.66 0.66 1.32 1 2 C0.01 2.495 0.01 2.495 -1 3 C-1.40729228 5.32156597 -1.74438677 7.6568787 -2 10 C-3.32 10.33 -4.64 10.66 -6 11 C-6.33 8.69 -6.66 6.38 -7 4 C-4.69 2.68 -2.38 1.36 0 0 Z " fill="#F8D217" transform="translate(250,142)"></path><path d="M0 0 C2.1640625 0.0234375 2.1640625 0.0234375 4.625 0.375 C5.85089844 0.54128906 5.85089844 0.54128906 7.1015625 0.7109375 C7.72804687 0.80632812 8.35453125 0.90171875 9 1 C9 1.33 9 1.66 9 2 C4.545 2.495 4.545 2.495 0 3 C-0.33 4.98 -0.66 6.96 -1 9 C0.32 9 1.64 9 3 9 C3 9.66 3 10.32 3 11 C3.66 11.33 4.32 11.66 5 12 C2.6875 12.25 2.6875 12.25 0 12 C-1.875 10.375 -1.875 10.375 -3 8 C-2.77962372 4.32706204 -2.63033454 2.63033454 0 0 Z " fill="#21170B" transform="translate(200,444)"></path><path d="M0 0 C8.74371859 -0.29145729 8.74371859 -0.29145729 12 2 C12.99 2.99 13.98 3.98 15 5 C7.575 4.01 7.575 4.01 0 3 C0 2.01 0 1.02 0 0 Z " fill="#392E18" transform="translate(276,281)"></path><path d="M0 0 C6.6 0.33 13.2 0.66 20 1 C20 1.33 20 1.66 20 2 C13.34362157 3.23839599 6.7528064 3.09139136 0 3 C0 2.01 0 1.02 0 0 Z " fill="#F3F1EB" transform="translate(203,457)"></path><path d="M0 0 C0.6290625 0.13277344 1.258125 0.26554687 1.90625 0.40234375 C7.26258811 1.50749182 12.56437906 2.39604212 18 3 C17.67 3.99 17.34 4.98 17 6 C10.93267948 4.96232949 5.5626148 3.66038099 0 1 C0 0.67 0 0.34 0 0 Z " fill="#C4E3E8" transform="translate(240,97)"></path><path d="M0 0 C4.455 0.99 4.455 0.99 9 2 C9 2.66 9 3.32 9 4 C6.1875 5.5625 6.1875 5.5625 3 7 C2.01 6.67 1.02 6.34 0 6 C0.66 5.34 1.32 4.68 2 4 C2 3.34 2 2.68 2 2 C1.34 1.34 0.68 0.68 0 0 Z " fill="#FAE316" transform="translate(286,228)"></path><path d="M0 0 C6.27 0 12.54 0 19 0 C19 0.33 19 0.66 19 1 C15.04 1 11.08 1 7 1 C7 1.66 7 2.32 7 3 C4.69 3 2.38 3 0 3 C0 2.01 0 1.02 0 0 Z " fill="#3F330F" transform="translate(257,249)"></path><path d="M0 0 C0.99 0.99 1.98 1.98 3 3 C0.36 4.98 -2.28 6.96 -5 9 C-5 5 -5 5 -2.5 2.25 C-1.675 1.5075 -0.85 0.765 0 0 Z " fill="#C1E3EA" transform="translate(212,37)"></path><path d="M0 0 C1 3 1 3 0.14453125 5.2265625 C-0.51482422 6.41378906 -0.51482422 6.41378906 -1.1875 7.625 C-1.61417969 8.42164063 -2.04085938 9.21828125 -2.48046875 10.0390625 C-4 12 -4 12 -6.17578125 12.7734375 C-7.07876953 12.88558594 -7.07876953 12.88558594 -8 13 C-7.05029764 10.88143321 -6.25157967 9.24064143 -4.5625 7.625 C-2.40212603 5.37821107 -1.30930299 2.80564927 0 0 Z " fill="#F5DE16" transform="translate(321,200)"></path><path d="M0 0 C0.66 0.99 1.32 1.98 2 3 C-0.97 5.475 -0.97 5.475 -4 8 C-4 4 -4 4 -2 1.75 C-1.01 0.88375 -1.01 0.88375 0 0 Z " fill="#231A04" transform="translate(257,293)"></path><path d="M0 0 C-2.9905167 3.33557632 -5.93184627 5.15083921 -10 7 C-7.6551217 1.76911763 -5.98347266 -0.48514643 0 0 Z " fill="#221907" transform="translate(360,36)"></path><path d="M0 0 C0.33 0 0.66 0 1 0 C1.125 6.625 1.125 6.625 0 10 C-1.65 10.33 -3.3 10.66 -5 11 C-5 10.34 -5 9.68 -5 9 C-4.0409375 8.38125 -4.0409375 8.38125 -3.0625 7.75 C-0.29641768 5.40302106 -0.31288108 3.51991219 0 0 Z " fill="#F6DB16" transform="translate(312,111)"></path><path d="M0 0 C0.99 0 1.98 0 3 0 C3 2.31 3 4.62 3 7 C2.01 7.33 1.02 7.66 0 8 C0 5.36 0 2.72 0 0 Z " fill="#281F08" transform="translate(181,114)"></path><path d="M0 0 C0.66 0.33 1.32 0.66 2 1 C0.1875 3 0.1875 3 -2 5 C-2.99 5 -3.98 5 -5 5 C-5 5.66 -5 6.32 -5 7 C-5.66 6.67 -6.32 6.34 -7 6 C-5.01180815 3.01771223 -3.42353587 1.21480305 0 0 Z " fill="#C1E3EC" transform="translate(201,109)"></path><path d="M0 0 C0.66 0.66 1.32 1.32 2 2 C1.34 2.66 0.68 3.32 0 4 C0 3.34 0 2.68 0 2 C-3.96 2 -7.92 2 -12 2 C-12 1.67 -12 1.34 -12 1 C-10.04310341 0.77857745 -8.08438048 0.5732432 -6.125 0.375 C-4.48917969 0.20097656 -4.48917969 0.20097656 -2.8203125 0.0234375 C-1.88960938 0.01570312 -0.95890625 0.00796875 0 0 Z " fill="#4C3605" transform="translate(325,189)"></path><path d="M0 0 C1.125 3.75 1.125 3.75 0 6 C-0.66 6 -1.32 6 -2 6 C-2.33 6.66 -2.66 7.32 -3 8 C-2.25 2.25 -2.25 2.25 0 0 Z " fill="#1F1808" transform="translate(195,37)"></path></svg>